<svg xmlns="http://www.w3.org/2000/svg" viewBox="0 0 512 512"><circle fill="#466dc4" cx="256" cy="256" r="256"/><path fill="#EFC84A" d="M216.028 299.87c4.832-2.418 6.814-8.353 4.395-13.185l-6.375-12.736c-2.418-4.832-8.562-7.275-13.643-5.437l-40.744 9.562a51.614 51.614 0 0 0-4.061-11.118c-12.749-25.47-43.734-35.782-69.204-23.032-25.47 12.75-35.782 43.733-23.032 69.204 12.752 25.47 43.739 35.778 69.209 23.028.532-.267 83.455-36.286 83.455-36.286zm-139.924 6.88c-9.23-18.435-1.767-40.86 16.67-50.089 18.433-9.228 40.86-1.765 50.089 16.671a37.344 37.344 0 0 1 3.271 9.638c3.098 16.023-4.633 32.787-19.942 40.452a38.474 38.474 0 0 1-3.304 1.455c-17.733 6.848-38.102-.778-46.784-18.127z"/><path fill="#EFC84A" d="M216.028 299.87c4.832-2.418 6.814-8.353 4.395-13.185l-6.375-12.736c-2.418-4.832-8.562-7.275-13.643-5.437l-40.744 9.562a51.614 51.614 0 0 0-4.061-11.118c-12.749-25.47-43.734-35.782-69.204-23.032-25.47 12.75-35.782 43.733-23.032 69.204 12.752 25.47 43.739 35.778 69.209 23.028.532-.267 83.455-36.286 83.455-36.286zm-139.924 6.88c-9.23-18.435-1.767-40.86 16.67-50.089 18.433-9.228 40.86-1.765 50.089 16.671a37.344 37.344 0 0 1 3.271 9.638c3.098 16.023-4.633 32.787-19.942 40.452a38.474 38.474 0 0 1-3.304 1.455c-17.733 6.848-38.102-.778-46.784-18.127z"/><path fill="#D6B342" d="M215.161 297.095c-2.842 1.285-6.305-.236-7.734-3.399l-6.076-13.442c-1.431-3.163-.285-6.767 2.558-8.053 2.842-1.285 6.306.236 7.735 3.399l6.076 13.442c1.429 3.163.285 6.768-2.559 8.053z"/><path fill="#D6D9D9" d="M215.989 294.33c-2.514.986-5.135-.345-5.819-2.958l-2.931-11.159c-.686-2.613.817-5.538 3.342-6.501L448.399 183c2.525-.964 5.023.417 5.556 3.065 0 0 3.253 16.23-20.872 32.773l-148.939 77.733c-2.394 1.25-6.021.82-8.057-.955l-15.971-13.911c-2.038-1.775-5.762-2.42-8.276-1.434l-35.851 14.059z"/><path fill="#D6B342" d="M141.696 261.552c-15.486-17.464-42.198-19.065-59.661-3.578-17.464 15.488-19.066 42.199-3.577 59.663 15.486 17.462 42.199 19.065 59.662 3.576 17.463-15.488 19.065-42.199 3.576-59.661zm-15.505 61.87a38.474 38.474 0 0 1-3.304 1.455c-17.732 6.848-38.102-.778-46.784-18.127-9.23-18.435-1.767-40.86 16.67-50.089 18.433-9.228 40.86-1.765 50.089 16.671a37.344 37.344 0 0 1 3.271 9.638c3.098 16.023-4.632 32.787-19.942 40.452z"/><path fill="#FBFFFF" d="M301.913 238.875l-38.211 14.575-7.301 2.785 16.609 8.68 7.788-2.97 38.212-14.575zm6.947-2.65l17.098 8.493 35.315-13.47-17.096-8.493zm143.605-39.76a.601.601 0 0 0 .023-.008c2.297-6.24 1.467-10.392 1.467-10.392-.532-2.648-3.03-4.029-5.556-3.065l-77.592 29.597 17.098 8.493 64.56-24.625zm-99.605 22.976l17.098 8.494 9.264-3.532-17.098-8.495z"/><path fill="#D6B342" d="M197.581 303.184a5.893 5.893 0 0 0-7.888-2.692l-1.321.648a5.894 5.894 0 0 0-2.693 7.891l1.629 3.318c4.339-1.887 8.469-3.681 12.178-5.29l-1.905-3.875zm-24.199 5.318l-1.324.649a5.895 5.895 0 0 0-2.691 7.889l1.256 2.559 12.176-5.292-1.527-3.113a5.895 5.895 0 0 0-7.89-2.692z"/><path fill="#EFC84A" d="M175.847 379.429c-12.75 25.47-2.441 56.456 23.028 69.208 25.47 12.75 56.453 2.439 69.203-23.032 12.75-25.47 2.439-56.455-23.032-69.203a51.644 51.644 0 0 0-11.117-4.062l9.561-40.743c1.839-5.08-.605-11.225-5.436-13.644l-12.737-6.375c-4.831-2.42-10.767-.436-13.185 4.396 0 0-36.019 82.923-36.285 83.455zm11.278 9.684a38.437 38.437 0 0 1 1.455-3.304c7.665-15.31 24.429-23.04 40.452-19.941a37.395 37.395 0 0 1 9.638 3.271c18.435 9.229 25.898 31.655 16.67 50.089-9.227 18.437-31.653 25.899-50.089 16.67-17.348-8.683-24.975-29.051-18.126-46.785z"/><path fill="#FFD54F" d="M175.847 379.429c-12.75 25.47-2.441 56.456 23.028 69.208 25.47 12.75 56.453 2.439 69.203-23.032 12.75-25.47 2.439-56.455-23.032-69.203a51.644 51.644 0 0 0-11.117-4.062l9.561-40.743c1.839-5.08-.605-11.225-5.436-13.644l-12.737-6.375c-4.831-2.42-10.767-.436-13.185 4.396 0 0-36.019 82.923-36.285 83.455zm11.278 9.684a38.437 38.437 0 0 1 1.455-3.304c7.665-15.31 24.429-23.04 40.452-19.941a37.395 37.395 0 0 1 9.638 3.271c18.435 9.229 25.898 31.655 16.67 50.089-9.227 18.437-31.653 25.899-50.089 16.67-17.348-8.683-24.975-29.051-18.126-46.785z"/><path fill="#EFC84A" d="M214.907 296.84c-1.285 2.842.236 6.305 3.399 7.735l13.441 6.076c3.163 1.431 6.769.285 8.054-2.559 1.285-2.841-.236-6.305-3.4-7.734l-13.441-6.077c-3.164-1.429-6.769-.284-8.053 2.559z"/><path fill="#EEF2F2" d="M217.671 296.012c-.986 2.515.346 5.135 2.959 5.82l11.158 2.93c2.613.687 5.539-.816 6.502-3.342l90.711-237.818c.964-2.525-.416-5.024-3.065-5.555 0 0-16.23-3.254-32.773 20.871l-77.732 148.94c-1.25 2.394-.82 6.02.954 8.057l13.911 15.97c1.775 2.038 2.421 5.762 1.434 8.276l-14.059 35.851z"/><path fill="#EFC84A" d="M190.788 373.882c-15.488 17.463-13.885 44.175 3.576 59.661 17.464 15.488 44.176 13.887 59.664-3.576 15.486-17.464 13.885-44.175-3.578-59.662-17.462-15.489-44.174-13.887-59.662 3.577zm38.244-8.014a37.395 37.395 0 0 1 9.638 3.271c18.435 9.229 25.898 31.655 16.67 50.089-9.227 18.437-31.653 25.899-50.089 16.67-17.348-8.684-24.975-29.052-18.126-46.785a38.437 38.437 0 0 1 1.455-3.304c7.665-15.309 24.429-23.039 40.452-19.941z"/><path fill="#FBFFFF" d="M273.126 210.088L258.552 248.3l-2.785 7.3-8.68-16.609 2.97-7.788 14.575-38.212zm2.65-6.946l-8.493-17.099 13.47-35.314 8.494 17.096zm39.76-143.606l.009-.022c6.24-2.297 10.392-1.467 10.392-1.467 2.648.531 4.028 3.03 3.065 5.555l-29.596 77.592-8.494-17.097 24.624-64.561zm-22.976 99.606l-8.494-17.099 3.533-9.263 8.494 17.098z"/><path fill="#EFC84A" d="M208.818 314.42a5.895 5.895 0 0 1 2.691 7.889l-.647 1.321a5.894 5.894 0 0 1-7.891 2.693l-3.318-1.63c1.887-4.339 3.68-8.469 5.29-12.177l3.875 1.904zm-5.318 24.2l-.649 1.323a5.893 5.893 0 0 1-7.889 2.691l-2.559-1.255 5.291-12.177 3.113 1.528a5.895 5.895 0 0 1 2.693 7.89z"/><circle fill="#EEF2F2" cx="235.422" cy="277.273" r="19.201"/><circle fill="#FBFFFF" cx="235.422" cy="277.273" r="12.227"/><path fill="#DADEDE" d="M240.726 279.036l-1.737-1.736 1.737-1.736c2.082-2.084-1.391-5.557-3.475-3.474l-1.736 1.737-1.736-1.737c-2.432-2.43-5.903 1.042-3.473 3.474l1.736 1.736-1.736 1.736c-2.431 2.432 1.041 5.904 3.473 3.474l1.736-1.736 1.736 1.736c2.084 2.083 5.557-1.39 3.475-3.474z"/></svg>